<svg xmlns="http://www.w3.org/2000/svg" viewBox="0 0 256 256" role="img" aria-labelledby="title desc">
  <title id="title">GoreeCloud Mesh Weave mark</title>
  <desc id="desc">Interwoven governed coordination routes connecting distributed endpoints without a single central authority hub.</desc>
  <defs>
    <linearGradient id="routeA" x1="42" y1="52" x2="214" y2="204" gradientUnits="userSpaceOnUse">
      <stop offset="0" stop-color="#22D3EE"/>
      <stop offset="0.52" stop-color="#3B82F6"/>
      <stop offset="1" stop-color="#8B5CF6"/>
    </linearGradient>
    <linearGradient id="routeB" x1="42" y1="204" x2="214" y2="52" gradientUnits="userSpaceOnUse">
      <stop offset="0" stop-color="#2DD4BF"/>
      <stop offset="0.48" stop-color="#38BDF8"/>
      <stop offset="1" stop-color="#6366F1"/>
    </linearGradient>
    <linearGradient id="nodeStroke" x1="32" y1="40" x2="224" y2="216" gradientUnits="userSpaceOnUse">
      <stop offset="0" stop-color="#67E8F9"/>
      <stop offset="0.5" stop-color="#60A5FA"/>
      <stop offset="1" stop-color="#A78BFA"/>
    </linearGradient>
  </defs>

  <path d="M49 79c42 0 50 98 99 98 24 0 39-18 59-37" fill="none" stroke="url(#routeA)" stroke-width="20" stroke-linecap="round"/>
  <path d="M49 177c42 0 50-98 99-98 24 0 39 18 59 37" fill="none" stroke="url(#routeB)" stroke-width="20" stroke-linecap="round"/>

  <path d="M75 58v140" fill="none" stroke="url(#routeB)" stroke-width="10" stroke-linecap="round" opacity="0.72"/>
  <path d="M181 58v140" fill="none" stroke="url(#routeA)" stroke-width="10" stroke-linecap="round" opacity="0.72"/>

  <path d="M109 111c12-20 24-32 39-32" fill="none" stroke="#F8FAFC" stroke-width="6" stroke-linecap="round" opacity="0.92"/>
  <path d="M109 145c12 20 24 32 39 32" fill="none" stroke="#F8FAFC" stroke-width="6" stroke-linecap="round" opacity="0.92"/>

  <g fill="#F8FAFC" stroke="url(#nodeStroke)" stroke-width="7">
    <circle cx="49" cy="79" r="14"/>
    <circle cx="49" cy="177" r="14"/>
    <circle cx="207" cy="116" r="14"/>
    <circle cx="207" cy="140" r="14"/>
  </g>

  <g fill="#0F172A" opacity="0.9">
    <circle cx="49" cy="79" r="4.5"/>
    <circle cx="49" cy="177" r="4.5"/>
    <circle cx="207" cy="116" r="4.5"/>
    <circle cx="207" cy="140" r="4.5"/>
  </g>
</svg>
