<svg xmlns="http://www.w3.org/2000/svg" aria-hidden="true">
<defs>
<style>.b{fill:#0b1120}.p{fill:#2f72ff}.t{fill:#18b7a0}.w{fill:#f8fbff}.l{fill:none;stroke:#f8fbff;stroke-width:5;stroke-linecap:round;stroke-linejoin:round}</style>
<symbol id="manager" viewBox="0 0 64 64"><rect class="b" width="64" height="64" rx="16"/><path class="p" d="M14 40h36c7 0 12-5 12-11 0-6-5-10-11-11-2-10-10-17-20-17-9 0-16 5-19 13C6 15 2 20 2 27c0 7 5 13 12 13Z" transform="translate(0 7) scale(.95)"/><path class="w" d="M16 46h32v6H16z"/><circle class="t" cx="23" cy="49" r="2.4"/><circle class="t" cx="31" cy="49" r="2.4"/></symbol>
<symbol id="monitor" viewBox="0 0 64 64"><rect class="b" width="64" height="64" rx="16"/><rect x="10" y="12" width="44" height="34" rx="6" class="p"/><path class="l" d="M15 32h8l5-10 7 18 5-8h9M24 53h16M32 46v7"/></symbol>
<symbol id="notify" viewBox="0 0 64 64"><rect class="b" width="64" height="64" rx="16"/><path class="p" d="M16 43h32l-5-7V27c0-8-5-14-11-14s-11 6-11 14v9l-5 7Z"/><path class="w" d="M27 47h10c0 5-2 7-5 7s-5-2-5-7Z"/><circle class="t" cx="46" cy="17" r="7"/></symbol>
<symbol id="backup" viewBox="0 0 64 64"><rect class="b" width="64" height="64" rx="16"/><path class="p" d="M14 18h36v30H14z"/><path class="w" d="M20 24h24v6H20zM20 34h24v8H20z"/><path class="l" d="M32 11v12m-5-5 5 5 5-5"/><circle class="t" cx="41" cy="38" r="2.5"/></symbol>
<symbol id="identity" viewBox="0 0 64 64"><rect class="b" width="64" height="64" rx="16"/><circle class="p" cx="32" cy="24" r="10"/><path class="p" d="M14 53c2-11 9-17 18-17s16 6 18 17Z"/><path class="l" d="M45 19l4 4 8-9"/></symbol>
<symbol id="network" viewBox="0 0 64 64"><rect class="b" width="64" height="64" rx="16"/><circle class="p" cx="32" cy="16" r="7"/><circle class="p" cx="16" cy="46" r="7"/><circle class="t" cx="48" cy="46" r="7"/><path class="l" d="M29 22 19 40m16-18 10 18M23 46h18"/></symbol>
<symbol id="dns" viewBox="0 0 64 64"><rect class="b" width="64" height="64" rx="16"/><circle class="p" cx="32" cy="32" r="20"/><path class="l" d="M12 32h40M32 12c6 6 9 13 9 20s-3 14-9 20c-6-6-9-13-9-20s3-14 9-20Z"/><circle class="t" cx="47" cy="18" r="5"/></symbol>
<symbol id="search" viewBox="0 0 64 64"><rect class="b" width="64" height="64" rx="16"/><circle class="p" cx="28" cy="28" r="15"/><path class="l" d="m39 39 12 12M20 28h16M28 20v16"/><circle class="t" cx="28" cy="28" r="4"/></symbol>
<symbol id="browser" viewBox="0 0 64 64"><rect class="b" width="64" height="64" rx="16"/><rect x="9" y="12" width="46" height="40" rx="7" class="p"/><path class="w" d="M9 22h46v5H9z"/><circle class="t" cx="16" cy="17" r="2"/><circle class="w" cx="22" cy="17" r="2"/><path class="l" d="M21 39c4-9 18-10 23-2M32 31v16"/></symbol>
<symbol id="drive" viewBox="0 0 64 64"><rect class="b" width="64" height="64" rx="16"/><path class="p" d="M8 20h18l6 6h24v27H8Z"/><path class="w" d="M12 29h40v20H12z"/><path class="t" d="M22 42h21c4 0 7-3 7-6s-3-6-6-6c-2-6-7-10-13-10-6 0-11 4-13 9-4 1-7 4-7 8 0 3 4 5 11 5Z"/></symbol>
<symbol id="sync" viewBox="0 0 64 64"><rect class="b" width="64" height="64" rx="16"/><path class="l" d="M16 28c2-9 9-14 18-14 7 0 12 3 16 8l4-4v12H42l4-4M48 36c-2 9-9 14-18 14-7 0-12-3-16-8l-4 4V34h12l-4 4"/><circle class="t" cx="32" cy="32" r="6"/></symbol>
<symbol id="documents" viewBox="0 0 64 64"><rect class="b" width="64" height="64" rx="16"/><path class="w" d="M17 9h23l9 9v37H17Z"/><path class="p" d="M40 9v10h9"/><path stroke="#2f72ff" stroke-width="4" stroke-linecap="round" d="M24 29h18M24 37h18M24 45h12"/></symbol>
<symbol id="notes" viewBox="0 0 64 64"><rect class="b" width="64" height="64" rx="16"/><rect x="14" y="10" width="36" height="44" rx="5" class="p"/><path class="l" d="M22 23h20M22 31h20M22 39h13"/><path class="t" d="m40 48 10-10 4 4-10 10-7 2Z"/></symbol>
<symbol id="memos" viewBox="0 0 64 64"><rect class="b" width="64" height="64" rx="16"/><path class="w" d="M20 15h18l7 7v27H20Z"/><path class="p" d="M38 15v8h8"/><path stroke="#2f72ff" stroke-width="3" stroke-linecap="round" d="M26 31h12M26 37h9"/><circle class="t" cx="45" cy="45" r="8"/><path class="l" d="M45 41v8M41 45h8"/></symbol>
<symbol id="tasks" viewBox="0 0 64 64"><rect class="b" width="64" height="64" rx="16"/><rect x="12" y="11" width="40" height="42" rx="7" class="p"/><path class="l" d="m20 25 4 4 7-8m-11 18 4 4 7-8M35 25h9M35 39h9"/></symbol>
<symbol id="calendar" viewBox="0 0 64 64"><rect class="b" width="64" height="64" rx="16"/><rect x="10" y="14" width="44" height="40" rx="7" class="w"/><path class="p" d="M10 20h44v10H10z"/><path class="l" d="M20 10v10M44 10v10"/><circle class="t" cx="32" cy="41" r="7"/></symbol>
<symbol id="contacts" viewBox="0 0 64 64"><rect class="b" width="64" height="64" rx="16"/><rect x="12" y="10" width="40" height="44" rx="8" class="p"/><circle class="w" cx="30" cy="26" r="8"/><path class="w" d="M18 47c1-8 6-13 12-13s11 5 12 13Z"/><path class="l" d="M49 20h6M49 28h6M49 36h6"/></symbol>
<symbol id="feed" viewBox="0 0 64 64"><rect class="b" width="64" height="64" rx="16"/><circle class="t" cx="18" cy="46" r="5"/><path class="l" d="M16 31c9 0 17 8 17 17M16 18c17 0 30 13 30 30"/><path class="p" d="M15 12h34v7H15z"/></symbol>
<symbol id="bookmarks" viewBox="0 0 64 64"><rect class="b" width="64" height="64" rx="16"/><path class="p" d="M18 10h28v45L32 45 18 55Z"/><path class="l" d="M25 22h14M25 30h14"/><circle class="t" cx="42" cy="18" r="5"/></symbol>
<symbol id="changelogs" viewBox="0 0 64 64"><rect class="b" width="64" height="64" rx="16"/><path class="w" d="M14 10h36v44H14z"/><path stroke="#2f72ff" stroke-width="4" stroke-linecap="round" d="M22 22h20M22 31h20M22 40h13"/><path class="t" d="m41 44 9-9 4 4-9 9-7 2Z"/></symbol>
<symbol id="mail" viewBox="0 0 64 64"><rect class="b" width="64" height="64" rx="16"/><rect x="8" y="15" width="48" height="36" rx="7" class="p"/><path class="l" d="m11 20 21 17 21-17"/><path class="t" d="M42 13h12v12H42z"/></symbol>
<symbol id="messenger" viewBox="0 0 64 64"><rect class="b" width="64" height="64" rx="16"/><path class="p" d="M8 15h48v34H33L20 57v-8H8Z"/><path class="l" d="M18 27h28M18 36h18"/><circle class="t" cx="47" cy="42" r="6"/></symbol>
<symbol id="music" viewBox="0 0 64 64"><rect class="b" width="64" height="64" rx="16"/><path class="p" d="M27 14v29c-2-2-5-3-8-3-6 0-10 3-10 8s4 8 10 8 10-4 10-9V25l25-6v18c-2-2-5-3-8-3-6 0-10 3-10 8s4 8 10 8 10-4 10-9V8Z"/><circle class="t" cx="22" cy="18" r="5"/></symbol>
<symbol id="video" viewBox="0 0 64 64"><rect class="b" width="64" height="64" rx="16"/><rect x="8" y="13" width="48" height="38" rx="8" class="p"/><path class="w" d="m27 23 16 9-16 9Z"/><path class="t" d="M12 51h40v5H12z"/></symbol>
<symbol id="gallery" viewBox="0 0 64 64"><rect class="b" width="64" height="64" rx="16"/><rect x="10" y="11" width="44" height="42" rx="7" class="p"/><circle class="w" cx="42" cy="23" r="6"/><path class="w" d="M14 48 26 33l8 9 6-6 10 12Z"/><path class="t" d="M17 16h10v5H17z"/></symbol>
<symbol id="photos" viewBox="0 0 64 64"><rect class="b" width="64" height="64" rx="16"/><circle class="p" cx="32" cy="32" r="20"/><circle class="w" cx="32" cy="32" r="8"/><path class="t" d="M32 8c5 0 9 6 9 12s-4 8-9 8-9-2-9-8 4-12 9-12Zm24 24c0 5-6 9-12 9s-8-4-8-9 2-9 8-9 12 4 12 9ZM32 56c-5 0-9-6-9-12s4-8 9-8 9 2 9 8-4 12-9 12ZM8 32c0-5 6-9 12-9s8 4 8 9-2 9-8 9-12-4-12-9Z"/></symbol>
<symbol id="location" viewBox="0 0 64 64"><rect class="b" width="64" height="64" rx="16"/><path class="p" d="M32 7c-11 0-20 9-20 20 0 15 20 31 20 31s20-16 20-31C52 16 43 7 32 7Z"/><circle class="w" cx="32" cy="27" r="8"/><circle class="t" cx="32" cy="27" r="4"/></symbol>
<symbol id="vault" viewBox="0 0 64 64"><rect class="b" width="64" height="64" rx="16"/><rect x="9" y="10" width="46" height="44" rx="8" class="p"/><circle class="w" cx="32" cy="32" r="13"/><circle class="b" cx="32" cy="32" r="7"/><path class="l" d="M32 20v5m12 7h-5m-7 12v-5m-12-7h5"/><circle class="t" cx="32" cy="32" r="2.5"/></symbol>
<symbol id="keyboard" viewBox="0 0 64 64"><rect class="b" width="64" height="64" rx="16"/><rect x="7" y="16" width="50" height="34" rx="7" class="p"/><g fill="#f8fbff"><rect x="13" y="22" width="6" height="5" rx="1"/><rect x="22" y="22" width="6" height="5" rx="1"/><rect x="31" y="22" width="6" height="5" rx="1"/><rect x="40" y="22" width="6" height="5" rx="1"/><rect x="17" y="31" width="6" height="5" rx="1"/><rect x="26" y="31" width="6" height="5" rx="1"/><rect x="35" y="31" width="6" height="5" rx="1"/><rect x="20" y="40" width="24" height="5" rx="2"/></g><circle class="t" cx="49" cy="34" r="4"/></symbol>
<symbol id="terminal" viewBox="0 0 64 64"><rect class="b" width="64" height="64" rx="16"/><rect x="7" y="11" width="50" height="42" rx="8" class="p"/><path class="l" d="m17 25 8 7-8 7M31 40h16"/><circle class="t" cx="15" cy="17" r="2"/><circle class="w" cx="21" cy="17" r="2"/></symbol>
<symbol id="launcher" viewBox="0 0 64 64"><rect class="b" width="64" height="64" rx="16"/><g fill="#2f72ff"><rect x="10" y="10" width="18" height="18" rx="5"/><rect x="36" y="10" width="18" height="18" rx="5"/><rect x="10" y="36" width="18" height="18" rx="5"/><rect x="36" y="36" width="18" height="18" rx="5"/></g><circle class="t" cx="45" cy="45" r="6"/><path class="l" d="M42 45h6M45 42v6"/></symbol>
<symbol id="ai" viewBox="0 0 64 64"><rect class="b" width="64" height="64" rx="16"/><path class="p" d="M20 14h24a8 8 0 0 1 8 8v20a8 8 0 0 1-8 8H20a8 8 0 0 1-8-8V22a8 8 0 0 1 8-8Z"/><circle class="w" cx="25" cy="30" r="4"/><circle class="w" cx="39" cy="30" r="4"/><path class="l" d="M24 40c5 4 11 4 16 0M32 8v6"/><circle class="t" cx="32" cy="7" r="4"/></symbol>
</defs>
</svg>
