<svg xmlns="http://www.w3.org/2000/svg" viewBox="0 0 1024 1024" role="img" aria-labelledby="title desc">
  <title id="title">GoreeCloud Browser — Tabmark Color Candidate</title>
  <desc id="desc">Structurally accepted Tabmark geometry with a revised bright Glaze aqua color treatment.</desc>
  <defs>
    <linearGradient id="foundation" x1="150" y1="108" x2="874" y2="916" gradientUnits="userSpaceOnUse">
      <stop offset="0" stop-color="#DFFBFA"/>
      <stop offset="0.52" stop-color="#BDEFEA"/>
      <stop offset="1" stop-color="#8FDCD5"/>
    </linearGradient>
    <linearGradient id="rear" x1="268" y1="262" x2="700" y2="700" gradientUnits="userSpaceOnUse">
      <stop offset="0" stop-color="#176B70"/>
      <stop offset="1" stop-color="#0B4F57"/>
    </linearGradient>
    <linearGradient id="front" x1="336" y1="316" x2="730" y2="724" gradientUnits="userSpaceOnUse">
      <stop offset="0" stop-color="#FFFFFF"/>
      <stop offset="0.58" stop-color="#F3FFFD"/>
      <stop offset="1" stop-color="#D8F6F1"/>
    </linearGradient>
    <filter id="lift" x="-20%" y="-20%" width="140%" height="140%">
      <feDropShadow dx="0" dy="18" stdDeviation="22" flood-color="#073B40" flood-opacity="0.20"/>
    </filter>
  </defs>
  <rect x="64" y="64" width="896" height="896" rx="224" fill="url(#foundation)"/>
  <g filter="url(#lift)">
    <path d="M230 296C230 262 256 236 290 236H642C676 236 702 262 702 296V376H750C784 376 810 402 810 436V690C810 724 784 750 750 750H334C300 750 274 724 274 690V610H230C196 610 170 584 170 550V356C170 322 196 296 230 296Z" fill="url(#rear)"/>
    <path d="M306 360C306 326 332 300 366 300H718C752 300 778 326 778 360V646C778 680 752 706 718 706H366C332 706 306 680 306 646V360Z" fill="url(#front)"/>
    <path d="M306 430H778" stroke="#176B70" stroke-opacity="0.52" stroke-width="28"/>
    <path d="M430 300H596L564 430H396L430 300Z" fill="#0B4F57"/>
  </g>
</svg>
